<?xml version="1.0" encoding="iso-8859-1"?>
<!-- Generator: Adobe Illustrator 19.1.0, SVG Export Plug-In . SVG Version: 6.00 Build 0)  -->
<svg version="1.1" id="Capa_1" xmlns="http://www.w3.org/2000/svg" xmlns:xlink="http://www.w3.org/1999/xlink" x="0px" y="0px"
	 viewBox="0 0 482.93 482.93" style="enable-background:new 0 0 482.93 482.93;" xml:space="preserve">
<g>
	<g>
		<g id="XMLID_12_">
			<g>
				<polygon style="fill:#EFEF78;" points="91.165,336.01 91.165,283.85 152.965,283.85 122.065,314.75 91.165,345.65 				"/>
				<polygon style="fill:#7EE085;" points="214.815,10 183.915,40.9 153.015,71.8 152.715,71.8 152.715,10 				"/>
				<polygon style="fill:#95EFEF;" points="91.425,146.93 60.525,177.83 29.625,208.73 29.625,146.93 				"/>
				<polygon style="fill:#7EE085;" points="330.215,146.93 249.005,146.93 152.715,146.93 152.715,71.8 153.015,71.8 183.915,40.9 
					214.815,10 453.305,10 453.305,199.08 330.215,199.08 				"/>
				<polygon style="fill:#95EFEF;" points="60.525,177.83 91.425,146.93 152.715,146.93 249.005,146.93 330.215,146.93 
					330.215,199.08 330.215,283.85 152.965,283.85 91.165,283.85 91.165,336.01 29.625,336.01 29.625,208.73 				"/>
				<polygon style="fill:#EFEF78;" points="122.065,314.75 152.965,283.85 330.215,283.85 391.755,283.85 391.755,472.93 
					91.165,472.93 91.165,345.65 				"/>
			</g>
			<g>
				
					<polyline style="fill:none;stroke:#F297D6;stroke-width:20;stroke-linecap:round;stroke-linejoin:round;stroke-miterlimit:10;" points="
					214.815,10 183.915,40.9 153.015,71.8 				"/>
				
					<polyline style="fill:none;stroke:#F297D6;stroke-width:20;stroke-linecap:round;stroke-linejoin:round;stroke-miterlimit:10;" points="
					91.425,146.93 60.525,177.83 29.625,208.73 				"/>
				
					<polyline style="fill:none;stroke:#F297D6;stroke-width:20;stroke-linecap:round;stroke-linejoin:round;stroke-miterlimit:10;" points="
					152.965,283.85 122.065,314.75 91.165,345.65 				"/>
				
					<polyline style="fill:none;stroke:#F297D6;stroke-width:20;stroke-linecap:round;stroke-linejoin:round;stroke-miterlimit:10;" points="
					60.525,200.33 60.525,177.83 83.025,177.83 				"/>
				
					<polyline style="fill:none;stroke:#F297D6;stroke-width:20;stroke-linecap:round;stroke-linejoin:round;stroke-miterlimit:10;" points="
					183.915,63.4 183.915,40.9 206.405,40.9 				"/>
				
					<polyline style="fill:none;stroke:#F297D6;stroke-width:20;stroke-linecap:round;stroke-linejoin:round;stroke-miterlimit:10;" points="
					122.065,337.25 122.065,314.75 144.565,314.75 				"/>
				<polyline style="fill:none;stroke:#000000;stroke-width:20;stroke-linejoin:round;stroke-miterlimit:10;" points="
					249.005,146.93 152.715,146.93 91.425,146.93 29.625,146.93 29.625,208.73 29.625,336.01 91.165,336.01 91.175,336.01 				"/>
				<polyline style="fill:none;stroke:#000000;stroke-width:20;stroke-linejoin:round;stroke-miterlimit:10;" points="
					330.215,283.85 330.215,199.08 330.215,146.93 				"/>
				<polyline style="fill:none;stroke:#000000;stroke-width:20;stroke-linejoin:round;stroke-miterlimit:10;" points="
					330.215,199.08 453.305,199.08 453.305,10 214.815,10 152.715,10 152.715,71.8 152.715,146.93 				"/>
				<polygon style="fill:none;stroke:#000000;stroke-width:20;stroke-linejoin:round;stroke-miterlimit:10;" points="91.165,345.65 
					91.165,472.93 391.755,472.93 391.755,283.85 330.215,283.85 152.965,283.85 91.165,283.85 91.165,336.01 				"/>
				
					<line style="fill:none;stroke:#000000;stroke-width:20;stroke-linecap:round;stroke-linejoin:round;stroke-miterlimit:10;" x1="249.005" y1="62.15" x2="357.005" y2="62.15"/>
				
					<line style="fill:none;stroke:#000000;stroke-width:20;stroke-linecap:round;stroke-linejoin:round;stroke-miterlimit:10;" x1="249.005" y1="104.54" x2="357.005" y2="104.54"/>
				
					<polyline style="fill:none;stroke:#000000;stroke-width:20;stroke-linecap:round;stroke-linejoin:round;stroke-miterlimit:10;" points="
					249.005,146.93 330.215,146.93 357.005,146.93 				"/>
				
					<line style="fill:none;stroke:#000000;stroke-width:20;stroke-linecap:round;stroke-linejoin:round;stroke-miterlimit:10;" x1="125.915" y1="199.08" x2="233.915" y2="199.08"/>
				
					<line style="fill:none;stroke:#000000;stroke-width:20;stroke-linecap:round;stroke-linejoin:round;stroke-miterlimit:10;" x1="125.915" y1="241.47" x2="233.915" y2="241.47"/>
				
					<line style="fill:none;stroke:#000000;stroke-width:20;stroke-linecap:round;stroke-linejoin:round;stroke-miterlimit:10;" x1="187.465" y1="336" x2="295.455" y2="336"/>
				
					<line style="fill:none;stroke:#000000;stroke-width:20;stroke-linecap:round;stroke-linejoin:round;stroke-miterlimit:10;" x1="187.465" y1="378.39" x2="295.455" y2="378.39"/>
				
					<line style="fill:none;stroke:#000000;stroke-width:20;stroke-linecap:round;stroke-linejoin:round;stroke-miterlimit:10;" x1="187.465" y1="420.78" x2="295.455" y2="420.78"/>
			</g>
		</g>
	</g>
</g>
<g>
</g>
<g>
</g>
<g>
</g>
<g>
</g>
<g>
</g>
<g>
</g>
<g>
</g>
<g>
</g>
<g>
</g>
<g>
</g>
<g>
</g>
<g>
</g>
<g>
</g>
<g>
</g>
<g>
</g>
</svg>
