<?xml version="1.0" encoding="iso-8859-1"?>
<!-- Generator: Adobe Illustrator 19.0.0, SVG Export Plug-In . SVG Version: 6.00 Build 0)  -->
<svg version="1.1" id="Layer_1" xmlns="http://www.w3.org/2000/svg" xmlns:xlink="http://www.w3.org/1999/xlink" x="0px" y="0px"
	 viewBox="0 0 512 512" style="enable-background:new 0 0 512 512;" xml:space="preserve">
<circle style="fill:#C2001B;" cx="256" cy="256" r="256"/>
<path style="fill:#940030;" d="M510.214,225.77L369.778,85.333L142.222,426.667l83.547,83.547C235.686,511.381,245.77,512,256,512
	c141.384,0,256-114.616,256-256C512,245.77,511.381,235.687,510.214,225.77z"/>
<rect x="142.222" y="85.333" style="fill:#FFFFFF;" width="227.556" height="341.333"/>
<rect x="255.431" y="85.333" style="fill:#E8E8E8;" width="114.347" height="341.333"/>
<rect x="170.667" y="113.778" style="fill:#FF7F4F;" width="170.667" height="85.333"/>
<rect x="255.431" y="113.778" style="fill:#FF5419;" width="85.907" height="85.333"/>
<rect x="308.579" y="216.919" style="fill:#FF6262;" width="32.754" height="102.728"/>
<rect x="170.667" y="341.333" style="fill:#FFAD9E;" width="113.778" height="56.889"/>
<rect x="255.431" y="341.333" style="fill:#FF6262;" width="29.018" height="56.889"/>
<g>
	<rect x="170.667" y="222.384" style="fill:#366695;" width="113.778" height="10.343"/>
	<rect x="170.667" y="250.828" style="fill:#366695;" width="113.778" height="10.343"/>
	<rect x="170.667" y="279.273" style="fill:#366695;" width="113.778" height="10.343"/>
	<rect x="308.579" y="342.195" style="fill:#366695;" width="32.754" height="10.343"/>
	<rect x="308.579" y="364.606" style="fill:#366695;" width="32.754" height="10.343"/>
	<rect x="308.579" y="387.017" style="fill:#366695;" width="32.754" height="10.343"/>
	<rect x="170.667" y="307.717" style="fill:#366695;" width="113.778" height="10.343"/>
</g>
<g>
</g>
<g>
</g>
<g>
</g>
<g>
</g>
<g>
</g>
<g>
</g>
<g>
</g>
<g>
</g>
<g>
</g>
<g>
</g>
<g>
</g>
<g>
</g>
<g>
</g>
<g>
</g>
<g>
</g>
</svg>
